<mxfile host="app.diagrams.net" modified="2023-07-28T08:55:19.253Z" agent="Mozilla/5.0 (Windows NT 10.0; Win64; x64) AppleWebKit/537.36 (KHTML, like Gecko) Chrome/115.0.0.0 Safari/537.36" etag="fgZ9ZJFmkxh2eRtgETOn" version="21.6.5" type="github" pages="3">
  <diagram name="페이지-1" id="ZnHBhvjJuVNRbxXca9uU">
    <mxGraphModel dx="967" dy="939" grid="1" gridSize="10" guides="1" tooltips="1" connect="1" arrows="1" fold="1" page="1" pageScale="1" pageWidth="827" pageHeight="1169" background="none" math="0" shadow="0">
      <root>
        <mxCell id="0" />
        <mxCell id="1" parent="0" />
        <mxCell id="nc1cBvIdsHUGoTgOPREE-12" value="고객" style="whiteSpace=wrap;html=1;align=center;" parent="1" vertex="1">
          <mxGeometry x="277" y="300" width="120" height="40" as="geometry" />
        </mxCell>
        <mxCell id="nc1cBvIdsHUGoTgOPREE-15" value="고객명" style="ellipse;whiteSpace=wrap;html=1;align=center;" parent="1" vertex="1">
          <mxGeometry x="257" y="200" width="80" height="40" as="geometry" />
        </mxCell>
        <mxCell id="nc1cBvIdsHUGoTgOPREE-17" value="" style="endArrow=none;html=1;rounded=0;exitX=0.5;exitY=1;exitDx=0;exitDy=0;entryX=0.5;entryY=0;entryDx=0;entryDy=0;" parent="1" source="nc1cBvIdsHUGoTgOPREE-15" target="nc1cBvIdsHUGoTgOPREE-12" edge="1">
          <mxGeometry relative="1" as="geometry">
            <mxPoint x="317" y="279.40999999999997" as="sourcePoint" />
            <mxPoint x="477" y="279.40999999999997" as="targetPoint" />
          </mxGeometry>
        </mxCell>
        <mxCell id="nc1cBvIdsHUGoTgOPREE-18" value="전화번호" style="ellipse;whiteSpace=wrap;html=1;align=center;fontStyle=0;" parent="1" vertex="1">
          <mxGeometry x="347" y="200" width="80" height="40" as="geometry" />
        </mxCell>
        <mxCell id="nc1cBvIdsHUGoTgOPREE-19" value="" style="endArrow=none;html=1;rounded=0;entryX=0.5;entryY=1;entryDx=0;entryDy=0;exitX=0.5;exitY=0;exitDx=0;exitDy=0;" parent="1" source="nc1cBvIdsHUGoTgOPREE-12" target="nc1cBvIdsHUGoTgOPREE-18" edge="1">
          <mxGeometry relative="1" as="geometry">
            <mxPoint x="537" y="260" as="sourcePoint" />
            <mxPoint x="617" y="430" as="targetPoint" />
            <Array as="points" />
          </mxGeometry>
        </mxCell>
        <mxCell id="nc1cBvIdsHUGoTgOPREE-22" value="주소" style="ellipse;whiteSpace=wrap;html=1;align=center;fontColor=#FF0000;" parent="1" vertex="1">
          <mxGeometry x="157" y="200" width="80" height="40" as="geometry" />
        </mxCell>
        <mxCell id="nc1cBvIdsHUGoTgOPREE-23" value="이메일" style="ellipse;whiteSpace=wrap;html=1;align=center;" parent="1" vertex="1">
          <mxGeometry x="437" y="200" width="80" height="40" as="geometry" />
        </mxCell>
        <mxCell id="nc1cBvIdsHUGoTgOPREE-24" value="" style="endArrow=none;html=1;rounded=0;exitX=0.35;exitY=1;exitDx=0;exitDy=0;entryX=0.5;entryY=0;entryDx=0;entryDy=0;exitPerimeter=0;" parent="1" source="nc1cBvIdsHUGoTgOPREE-23" target="nc1cBvIdsHUGoTgOPREE-12" edge="1">
          <mxGeometry relative="1" as="geometry">
            <mxPoint x="387" y="230" as="sourcePoint" />
            <mxPoint x="487" y="289.40999999999997" as="targetPoint" />
          </mxGeometry>
        </mxCell>
        <mxCell id="nc1cBvIdsHUGoTgOPREE-27" value="지역" style="ellipse;whiteSpace=wrap;html=1;align=center;fontStyle=0;fontColor=#FF0000;" parent="1" vertex="1">
          <mxGeometry x="157" y="250" width="80" height="40" as="geometry" />
        </mxCell>
        <mxCell id="nc1cBvIdsHUGoTgOPREE-29" value="가입일" style="ellipse;whiteSpace=wrap;html=1;align=center;" parent="1" vertex="1">
          <mxGeometry x="157" y="300" width="80" height="40" as="geometry" />
        </mxCell>
        <mxCell id="nc1cBvIdsHUGoTgOPREE-30" value="" style="endArrow=none;html=1;rounded=0;exitX=1;exitY=0.5;exitDx=0;exitDy=0;entryX=0;entryY=0.5;entryDx=0;entryDy=0;" parent="1" source="nc1cBvIdsHUGoTgOPREE-29" target="nc1cBvIdsHUGoTgOPREE-12" edge="1">
          <mxGeometry relative="1" as="geometry">
            <mxPoint x="457" y="430" as="sourcePoint" />
            <mxPoint x="477" y="280" as="targetPoint" />
          </mxGeometry>
        </mxCell>
        <mxCell id="nc1cBvIdsHUGoTgOPREE-31" value="" style="endArrow=none;html=1;rounded=0;exitX=1;exitY=1;exitDx=0;exitDy=0;entryX=0.5;entryY=0;entryDx=0;entryDy=0;" parent="1" source="nc1cBvIdsHUGoTgOPREE-22" target="nc1cBvIdsHUGoTgOPREE-12" edge="1">
          <mxGeometry relative="1" as="geometry">
            <mxPoint x="457" y="430" as="sourcePoint" />
            <mxPoint x="617" y="430" as="targetPoint" />
          </mxGeometry>
        </mxCell>
        <mxCell id="nc1cBvIdsHUGoTgOPREE-32" value="" style="endArrow=none;html=1;rounded=0;exitX=1;exitY=0.5;exitDx=0;exitDy=0;entryX=0;entryY=0.5;entryDx=0;entryDy=0;" parent="1" source="nc1cBvIdsHUGoTgOPREE-27" target="nc1cBvIdsHUGoTgOPREE-12" edge="1">
          <mxGeometry relative="1" as="geometry">
            <mxPoint x="457" y="430" as="sourcePoint" />
            <mxPoint x="477" y="280" as="targetPoint" />
          </mxGeometry>
        </mxCell>
        <mxCell id="nc1cBvIdsHUGoTgOPREE-34" value="고객코드" style="ellipse;whiteSpace=wrap;html=1;align=center;fontStyle=4;fontColor=#FF0000;" parent="1" vertex="1">
          <mxGeometry x="437" y="250" width="80" height="40" as="geometry" />
        </mxCell>
        <mxCell id="nc1cBvIdsHUGoTgOPREE-35" value="" style="endArrow=none;html=1;rounded=0;exitX=1;exitY=0.5;exitDx=0;exitDy=0;entryX=0;entryY=0.5;entryDx=0;entryDy=0;" parent="1" source="nc1cBvIdsHUGoTgOPREE-12" target="nc1cBvIdsHUGoTgOPREE-34" edge="1">
          <mxGeometry relative="1" as="geometry">
            <mxPoint x="457" y="430" as="sourcePoint" />
            <mxPoint x="617" y="430" as="targetPoint" />
          </mxGeometry>
        </mxCell>
        <mxCell id="f-JAYxa_N3UwoayTcWPG-1" value="지역" style="rounded=0;whiteSpace=wrap;html=1;" parent="1" vertex="1">
          <mxGeometry x="157" y="420" width="80" height="40" as="geometry" />
        </mxCell>
        <mxCell id="f-JAYxa_N3UwoayTcWPG-2" value="지역코드" style="ellipse;whiteSpace=wrap;html=1;align=center;fontStyle=4;fontColor=#ff0000;verticalAlign=middle;" parent="1" vertex="1">
          <mxGeometry x="37" y="380" width="80" height="40" as="geometry" />
        </mxCell>
        <mxCell id="f-JAYxa_N3UwoayTcWPG-3" value="지역명" style="ellipse;whiteSpace=wrap;html=1;align=center;fontStyle=0" parent="1" vertex="1">
          <mxGeometry x="37" y="460" width="80" height="40" as="geometry" />
        </mxCell>
        <mxCell id="f-JAYxa_N3UwoayTcWPG-4" value="" style="endArrow=none;html=1;rounded=0;exitX=1;exitY=0.5;exitDx=0;exitDy=0;entryX=0;entryY=0.5;entryDx=0;entryDy=0;" parent="1" source="f-JAYxa_N3UwoayTcWPG-3" target="f-JAYxa_N3UwoayTcWPG-1" edge="1">
          <mxGeometry relative="1" as="geometry">
            <mxPoint x="367" y="690" as="sourcePoint" />
            <mxPoint x="467" y="650" as="targetPoint" />
          </mxGeometry>
        </mxCell>
        <mxCell id="f-JAYxa_N3UwoayTcWPG-5" value="" style="endArrow=none;html=1;rounded=0;exitX=1;exitY=0.5;exitDx=0;exitDy=0;entryX=0;entryY=0.5;entryDx=0;entryDy=0;" parent="1" source="f-JAYxa_N3UwoayTcWPG-2" target="f-JAYxa_N3UwoayTcWPG-1" edge="1">
          <mxGeometry relative="1" as="geometry">
            <mxPoint x="447" y="610" as="sourcePoint" />
            <mxPoint x="477" y="580" as="targetPoint" />
            <Array as="points" />
          </mxGeometry>
        </mxCell>
        <mxCell id="f-JAYxa_N3UwoayTcWPG-6" value="제품" style="rounded=0;whiteSpace=wrap;html=1;" parent="1" vertex="1">
          <mxGeometry x="607" y="420" width="80" height="40" as="geometry" />
        </mxCell>
        <mxCell id="f-JAYxa_N3UwoayTcWPG-8" value="&lt;font&gt;제품코드&lt;/font&gt;" style="ellipse;whiteSpace=wrap;html=1;align=center;fontStyle=4;fontColor=#FF0000;verticalAlign=middle;" parent="1" vertex="1">
          <mxGeometry x="567" y="340" width="70" height="40" as="geometry" />
        </mxCell>
        <mxCell id="f-JAYxa_N3UwoayTcWPG-9" value="가격" style="ellipse;whiteSpace=wrap;html=1;align=center;fontStyle=0" parent="1" vertex="1">
          <mxGeometry x="727" y="390" width="70" height="40" as="geometry" />
        </mxCell>
        <mxCell id="f-JAYxa_N3UwoayTcWPG-10" value="제품명" style="ellipse;whiteSpace=wrap;html=1;align=center;fontStyle=0" parent="1" vertex="1">
          <mxGeometry x="647" y="340" width="70" height="40" as="geometry" />
        </mxCell>
        <mxCell id="f-JAYxa_N3UwoayTcWPG-11" value="제품색상" style="ellipse;shape=doubleEllipse;margin=3;whiteSpace=wrap;html=1;align=center;" parent="1" vertex="1">
          <mxGeometry x="727" y="440" width="70" height="40" as="geometry" />
        </mxCell>
        <mxCell id="f-JAYxa_N3UwoayTcWPG-12" value="제품구분" style="ellipse;whiteSpace=wrap;html=1;align=center;fontStyle=0" parent="1" vertex="1">
          <mxGeometry x="727" y="340" width="70" height="40" as="geometry" />
        </mxCell>
        <mxCell id="f-JAYxa_N3UwoayTcWPG-14" value="" style="endArrow=none;html=1;rounded=0;exitX=1;exitY=0.5;exitDx=0;exitDy=0;entryX=0;entryY=0;entryDx=0;entryDy=0;" parent="1" source="f-JAYxa_N3UwoayTcWPG-6" target="f-JAYxa_N3UwoayTcWPG-11" edge="1">
          <mxGeometry relative="1" as="geometry">
            <mxPoint x="697" y="560" as="sourcePoint" />
            <mxPoint x="797" y="550" as="targetPoint" />
            <Array as="points" />
          </mxGeometry>
        </mxCell>
        <mxCell id="f-JAYxa_N3UwoayTcWPG-15" value="" style="endArrow=none;html=1;rounded=0;exitX=0.75;exitY=0;exitDx=0;exitDy=0;entryX=0;entryY=1;entryDx=0;entryDy=0;" parent="1" source="f-JAYxa_N3UwoayTcWPG-6" target="f-JAYxa_N3UwoayTcWPG-12" edge="1">
          <mxGeometry relative="1" as="geometry">
            <mxPoint x="707" y="440" as="sourcePoint" />
            <mxPoint x="789" y="414" as="targetPoint" />
          </mxGeometry>
        </mxCell>
        <mxCell id="f-JAYxa_N3UwoayTcWPG-16" value="" style="endArrow=none;html=1;rounded=0;entryX=0.5;entryY=1;entryDx=0;entryDy=0;exitX=0.75;exitY=0;exitDx=0;exitDy=0;" parent="1" source="f-JAYxa_N3UwoayTcWPG-6" target="f-JAYxa_N3UwoayTcWPG-10" edge="1">
          <mxGeometry relative="1" as="geometry">
            <mxPoint x="697" y="460" as="sourcePoint" />
            <mxPoint x="753" y="420" as="targetPoint" />
          </mxGeometry>
        </mxCell>
        <mxCell id="f-JAYxa_N3UwoayTcWPG-17" value="" style="endArrow=none;html=1;rounded=0;exitX=0.75;exitY=0;exitDx=0;exitDy=0;" parent="1" source="f-JAYxa_N3UwoayTcWPG-6" target="f-JAYxa_N3UwoayTcWPG-9" edge="1">
          <mxGeometry relative="1" as="geometry">
            <mxPoint x="697" y="460" as="sourcePoint" />
            <mxPoint x="779" y="434" as="targetPoint" />
          </mxGeometry>
        </mxCell>
        <mxCell id="f-JAYxa_N3UwoayTcWPG-18" value="" style="endArrow=none;html=1;rounded=0;exitX=0.75;exitY=0;exitDx=0;exitDy=0;entryX=0.5;entryY=1;entryDx=0;entryDy=0;" parent="1" source="f-JAYxa_N3UwoayTcWPG-6" target="f-JAYxa_N3UwoayTcWPG-8" edge="1">
          <mxGeometry relative="1" as="geometry">
            <mxPoint x="531" y="463" as="sourcePoint" />
            <mxPoint x="613" y="437" as="targetPoint" />
          </mxGeometry>
        </mxCell>
        <mxCell id="f-JAYxa_N3UwoayTcWPG-19" value="관리" style="rhombus;whiteSpace=wrap;html=1;" parent="1" vertex="1">
          <mxGeometry x="297" y="410" width="80" height="60" as="geometry" />
        </mxCell>
        <mxCell id="f-JAYxa_N3UwoayTcWPG-20" value="" style="endArrow=none;html=1;rounded=0;exitX=1;exitY=0.5;exitDx=0;exitDy=0;entryX=0;entryY=0.5;entryDx=0;entryDy=0;" parent="1" source="f-JAYxa_N3UwoayTcWPG-1" target="f-JAYxa_N3UwoayTcWPG-19" edge="1">
          <mxGeometry relative="1" as="geometry">
            <mxPoint x="327" y="440" as="sourcePoint" />
            <mxPoint x="397" y="520" as="targetPoint" />
          </mxGeometry>
        </mxCell>
        <mxCell id="f-JAYxa_N3UwoayTcWPG-21" value="" style="endArrow=none;html=1;rounded=0;exitX=0.5;exitY=1;exitDx=0;exitDy=0;entryX=0.5;entryY=0;entryDx=0;entryDy=0;" parent="1" source="nc1cBvIdsHUGoTgOPREE-12" target="f-JAYxa_N3UwoayTcWPG-19" edge="1">
          <mxGeometry relative="1" as="geometry">
            <mxPoint x="367" y="450" as="sourcePoint" />
            <mxPoint x="437" y="450" as="targetPoint" />
          </mxGeometry>
        </mxCell>
        <mxCell id="f-JAYxa_N3UwoayTcWPG-22" value="구매" style="rhombus;whiteSpace=wrap;html=1;" parent="1" vertex="1">
          <mxGeometry x="457" y="410" width="80" height="60" as="geometry" />
        </mxCell>
        <mxCell id="f-JAYxa_N3UwoayTcWPG-24" value="" style="endArrow=none;html=1;rounded=0;exitX=1;exitY=0.5;exitDx=0;exitDy=0;entryX=0.5;entryY=0;entryDx=0;entryDy=0;" parent="1" source="nc1cBvIdsHUGoTgOPREE-12" target="f-JAYxa_N3UwoayTcWPG-22" edge="1">
          <mxGeometry relative="1" as="geometry">
            <mxPoint x="547" y="310" as="sourcePoint" />
            <mxPoint x="447" y="420" as="targetPoint" />
          </mxGeometry>
        </mxCell>
        <mxCell id="f-JAYxa_N3UwoayTcWPG-25" value="" style="endArrow=none;html=1;rounded=0;exitX=0;exitY=0.5;exitDx=0;exitDy=0;entryX=1;entryY=0.5;entryDx=0;entryDy=0;" parent="1" source="f-JAYxa_N3UwoayTcWPG-6" target="f-JAYxa_N3UwoayTcWPG-22" edge="1">
          <mxGeometry relative="1" as="geometry">
            <mxPoint x="547" y="310" as="sourcePoint" />
            <mxPoint x="557" y="420" as="targetPoint" />
          </mxGeometry>
        </mxCell>
        <mxCell id="f-JAYxa_N3UwoayTcWPG-27" value="구매일자" style="ellipse;whiteSpace=wrap;html=1;align=center;fontStyle=0" parent="1" vertex="1">
          <mxGeometry x="507" y="500" width="70" height="40" as="geometry" />
        </mxCell>
        <mxCell id="f-JAYxa_N3UwoayTcWPG-28" value="구매수량" style="ellipse;whiteSpace=wrap;html=1;align=center;fontStyle=0" parent="1" vertex="1">
          <mxGeometry x="417" y="500" width="70" height="40" as="geometry" />
        </mxCell>
        <mxCell id="f-JAYxa_N3UwoayTcWPG-30" value="" style="endArrow=none;html=1;rounded=0;exitX=0.5;exitY=0;exitDx=0;exitDy=0;entryX=0.5;entryY=1;entryDx=0;entryDy=0;" parent="1" source="f-JAYxa_N3UwoayTcWPG-28" target="f-JAYxa_N3UwoayTcWPG-22" edge="1">
          <mxGeometry relative="1" as="geometry">
            <mxPoint x="647" y="470" as="sourcePoint" />
            <mxPoint x="597" y="450" as="targetPoint" />
          </mxGeometry>
        </mxCell>
        <mxCell id="f-JAYxa_N3UwoayTcWPG-31" value="" style="endArrow=none;html=1;rounded=0;exitX=0.5;exitY=0;exitDx=0;exitDy=0;entryX=0.5;entryY=1;entryDx=0;entryDy=0;" parent="1" source="f-JAYxa_N3UwoayTcWPG-27" target="f-JAYxa_N3UwoayTcWPG-22" edge="1">
          <mxGeometry relative="1" as="geometry">
            <mxPoint x="657" y="480" as="sourcePoint" />
            <mxPoint x="607" y="460" as="targetPoint" />
          </mxGeometry>
        </mxCell>
        <mxCell id="f-JAYxa_N3UwoayTcWPG-35" value="&lt;font style=&quot;font-size: 16px;&quot;&gt;Conceputal Data Modeling(ERD)개념적 모델링&lt;/font&gt;" style="whiteSpace=wrap;html=1;align=center;fontStyle=4" parent="1" vertex="1">
          <mxGeometry x="197" y="100" width="390" height="40" as="geometry" />
        </mxCell>
        <mxCell id="BvJ3aZPh3aL1Ik3ksvVr-1" value="N" style="text;html=1;align=center;verticalAlign=middle;resizable=0;points=[];autosize=1;strokeColor=none;fillColor=none;" parent="1" vertex="1">
          <mxGeometry x="307" y="380" width="30" height="30" as="geometry" />
        </mxCell>
        <mxCell id="BvJ3aZPh3aL1Ik3ksvVr-2" value="1" style="text;html=1;align=center;verticalAlign=middle;resizable=0;points=[];autosize=1;strokeColor=none;fillColor=none;" parent="1" vertex="1">
          <mxGeometry x="267" y="440" width="30" height="30" as="geometry" />
        </mxCell>
        <mxCell id="V6l3bEgOYuVi9h6EQhT--1" value="N" style="text;html=1;align=center;verticalAlign=middle;resizable=0;points=[];autosize=1;strokeColor=none;fillColor=none;" parent="1" vertex="1">
          <mxGeometry x="537" y="410" width="30" height="30" as="geometry" />
        </mxCell>
        <mxCell id="V6l3bEgOYuVi9h6EQhT--2" value="M" style="text;html=1;align=center;verticalAlign=middle;resizable=0;points=[];autosize=1;strokeColor=none;fillColor=none;" parent="1" vertex="1">
          <mxGeometry x="477" y="370" width="30" height="30" as="geometry" />
        </mxCell>
      </root>
    </mxGraphModel>
  </diagram>
  <diagram id="gm_yCKze5Qx4fNA9rjMg" name="페이지-2">
    <mxGraphModel dx="822" dy="798" grid="1" gridSize="10" guides="1" tooltips="1" connect="1" arrows="1" fold="1" page="1" pageScale="1" pageWidth="827" pageHeight="1169" math="0" shadow="0">
      <root>
        <mxCell id="0" />
        <mxCell id="1" parent="0" />
        <mxCell id="rS-2J6gAKMVRSGZVnTT_-1" value="&lt;font style=&quot;font-size: 16px;&quot;&gt;Logical Data Modeling(RM)논리적 모델링&lt;/font&gt;" style="whiteSpace=wrap;html=1;align=center;fontStyle=4" parent="1" vertex="1">
          <mxGeometry x="219" y="40" width="390" height="40" as="geometry" />
        </mxCell>
        <mxCell id="yse6lNV3K0nOs2ZHp3iA-16" value="고객" style="swimlane;childLayout=stackLayout;horizontal=1;startSize=30;horizontalStack=0;rounded=1;fontSize=14;fontStyle=0;strokeWidth=2;resizeParent=0;resizeLast=1;shadow=0;dashed=0;align=center;arcSize=4;whiteSpace=wrap;html=1;" parent="1" vertex="1">
          <mxGeometry x="210" y="480" width="117" height="150" as="geometry" />
        </mxCell>
        <mxCell id="yse6lNV3K0nOs2ZHp3iA-17" value="고객번호(PK)&lt;br&gt;고객명&lt;br&gt;전화번호&lt;br&gt;이메일&lt;br&gt;주소&lt;br&gt;&lt;font color=&quot;#ff0000&quot;&gt;지역코드(FK)&lt;br&gt;&lt;/font&gt;가입일" style="align=left;strokeColor=none;fillColor=none;spacingLeft=4;fontSize=12;verticalAlign=top;resizable=0;rotatable=0;part=1;html=1;" parent="yse6lNV3K0nOs2ZHp3iA-16" vertex="1">
          <mxGeometry y="30" width="117" height="120" as="geometry" />
        </mxCell>
        <mxCell id="BlyW3vxBF48IkwY7XijH-6" value="지역" style="swimlane;childLayout=stackLayout;horizontal=1;startSize=25;horizontalStack=0;rounded=1;fontSize=14;fontStyle=0;strokeWidth=2;resizeParent=0;resizeLast=1;shadow=0;dashed=0;align=center;arcSize=4;whiteSpace=wrap;html=1;" parent="1" vertex="1">
          <mxGeometry x="30" y="480" width="101" height="75" as="geometry" />
        </mxCell>
        <mxCell id="BlyW3vxBF48IkwY7XijH-7" value="&lt;font color=&quot;#ff0000&quot;&gt;지역코드(FK)&lt;br&gt;&lt;/font&gt;지역명" style="align=left;strokeColor=none;fillColor=none;spacingLeft=4;fontSize=12;verticalAlign=top;resizable=0;rotatable=0;part=1;html=1;" parent="BlyW3vxBF48IkwY7XijH-6" vertex="1">
          <mxGeometry y="25" width="101" height="50" as="geometry" />
        </mxCell>
        <mxCell id="mSvb29QM7G7xSX9ZZJCh-6" value="" style="edgeStyle=entityRelationEdgeStyle;fontSize=12;html=1;endArrow=ERoneToMany;startArrow=ERmandOne;rounded=0;entryX=-0.013;entryY=0.365;entryDx=0;entryDy=0;exitX=1;exitY=0.25;exitDx=0;exitDy=0;entryPerimeter=0;" parent="1" source="BlyW3vxBF48IkwY7XijH-7" target="yse6lNV3K0nOs2ZHp3iA-17" edge="1">
          <mxGeometry width="100" height="100" relative="1" as="geometry">
            <mxPoint x="-81" y="710" as="sourcePoint" />
            <mxPoint x="19" y="630" as="targetPoint" />
            <Array as="points">
              <mxPoint x="123" y="650" />
              <mxPoint x="235" y="557" />
              <mxPoint x="123" y="660" />
            </Array>
          </mxGeometry>
        </mxCell>
        <mxCell id="mWZHtibvBv7XCX4P4cAg-15" value="제품" style="swimlane;childLayout=stackLayout;horizontal=1;startSize=30;horizontalStack=0;rounded=1;fontSize=14;fontStyle=0;strokeWidth=2;resizeParent=0;resizeLast=1;shadow=0;dashed=0;align=center;arcSize=4;whiteSpace=wrap;html=1;" parent="1" vertex="1">
          <mxGeometry x="620" y="480" width="160" height="120" as="geometry" />
        </mxCell>
        <mxCell id="mWZHtibvBv7XCX4P4cAg-16" value="&lt;font color=&quot;#ff0000&quot;&gt;번호(PK)&lt;/font&gt;&lt;br&gt;제품코드(FK)&lt;br&gt;제품명&lt;br&gt;제품구분&lt;br&gt;제품색상&lt;br&gt;가격" style="align=left;strokeColor=none;fillColor=none;spacingLeft=4;fontSize=12;verticalAlign=top;resizable=0;rotatable=0;part=1;html=1;" parent="mWZHtibvBv7XCX4P4cAg-15" vertex="1">
          <mxGeometry y="30" width="160" height="90" as="geometry" />
        </mxCell>
        <mxCell id="Ow_TU3StZ6y1RXJ-SokE-1" value="고객" style="whiteSpace=wrap;html=1;align=center;" parent="1" vertex="1">
          <mxGeometry x="280" y="220" width="120" height="40" as="geometry" />
        </mxCell>
        <mxCell id="Ow_TU3StZ6y1RXJ-SokE-2" value="고객명" style="ellipse;whiteSpace=wrap;html=1;align=center;" parent="1" vertex="1">
          <mxGeometry x="260" y="120" width="80" height="40" as="geometry" />
        </mxCell>
        <mxCell id="Ow_TU3StZ6y1RXJ-SokE-3" value="" style="endArrow=none;html=1;rounded=0;exitX=0.5;exitY=1;exitDx=0;exitDy=0;entryX=0.5;entryY=0;entryDx=0;entryDy=0;" parent="1" source="Ow_TU3StZ6y1RXJ-SokE-2" target="Ow_TU3StZ6y1RXJ-SokE-1" edge="1">
          <mxGeometry relative="1" as="geometry">
            <mxPoint x="320" y="199.40999999999997" as="sourcePoint" />
            <mxPoint x="480" y="199.40999999999997" as="targetPoint" />
          </mxGeometry>
        </mxCell>
        <mxCell id="Ow_TU3StZ6y1RXJ-SokE-4" value="전화번호" style="ellipse;whiteSpace=wrap;html=1;align=center;fontStyle=0;" parent="1" vertex="1">
          <mxGeometry x="350" y="120" width="80" height="40" as="geometry" />
        </mxCell>
        <mxCell id="Ow_TU3StZ6y1RXJ-SokE-5" value="" style="endArrow=none;html=1;rounded=0;entryX=0.5;entryY=1;entryDx=0;entryDy=0;exitX=0.5;exitY=0;exitDx=0;exitDy=0;" parent="1" source="Ow_TU3StZ6y1RXJ-SokE-1" target="Ow_TU3StZ6y1RXJ-SokE-4" edge="1">
          <mxGeometry relative="1" as="geometry">
            <mxPoint x="540" y="180" as="sourcePoint" />
            <mxPoint x="620" y="350" as="targetPoint" />
            <Array as="points" />
          </mxGeometry>
        </mxCell>
        <mxCell id="Ow_TU3StZ6y1RXJ-SokE-6" value="주소" style="ellipse;whiteSpace=wrap;html=1;align=center;fontColor=#FF0000;" parent="1" vertex="1">
          <mxGeometry x="160" y="120" width="80" height="40" as="geometry" />
        </mxCell>
        <mxCell id="Ow_TU3StZ6y1RXJ-SokE-7" value="이메일" style="ellipse;whiteSpace=wrap;html=1;align=center;" parent="1" vertex="1">
          <mxGeometry x="440" y="120" width="80" height="40" as="geometry" />
        </mxCell>
        <mxCell id="Ow_TU3StZ6y1RXJ-SokE-8" value="" style="endArrow=none;html=1;rounded=0;exitX=0.35;exitY=1;exitDx=0;exitDy=0;entryX=0.5;entryY=0;entryDx=0;entryDy=0;exitPerimeter=0;" parent="1" source="Ow_TU3StZ6y1RXJ-SokE-7" target="Ow_TU3StZ6y1RXJ-SokE-1" edge="1">
          <mxGeometry relative="1" as="geometry">
            <mxPoint x="390" y="150" as="sourcePoint" />
            <mxPoint x="490" y="209.40999999999997" as="targetPoint" />
          </mxGeometry>
        </mxCell>
        <mxCell id="Ow_TU3StZ6y1RXJ-SokE-9" value="지역" style="ellipse;whiteSpace=wrap;html=1;align=center;fontStyle=0;fontColor=#FF0000;" parent="1" vertex="1">
          <mxGeometry x="160" y="170" width="80" height="40" as="geometry" />
        </mxCell>
        <mxCell id="Ow_TU3StZ6y1RXJ-SokE-10" value="가입일" style="ellipse;whiteSpace=wrap;html=1;align=center;" parent="1" vertex="1">
          <mxGeometry x="160" y="220" width="80" height="40" as="geometry" />
        </mxCell>
        <mxCell id="Ow_TU3StZ6y1RXJ-SokE-11" value="" style="endArrow=none;html=1;rounded=0;exitX=1;exitY=0.5;exitDx=0;exitDy=0;entryX=0;entryY=0.5;entryDx=0;entryDy=0;" parent="1" source="Ow_TU3StZ6y1RXJ-SokE-10" target="Ow_TU3StZ6y1RXJ-SokE-1" edge="1">
          <mxGeometry relative="1" as="geometry">
            <mxPoint x="460" y="350" as="sourcePoint" />
            <mxPoint x="480" y="200" as="targetPoint" />
          </mxGeometry>
        </mxCell>
        <mxCell id="Ow_TU3StZ6y1RXJ-SokE-12" value="" style="endArrow=none;html=1;rounded=0;exitX=1;exitY=1;exitDx=0;exitDy=0;entryX=0.5;entryY=0;entryDx=0;entryDy=0;" parent="1" source="Ow_TU3StZ6y1RXJ-SokE-6" target="Ow_TU3StZ6y1RXJ-SokE-1" edge="1">
          <mxGeometry relative="1" as="geometry">
            <mxPoint x="460" y="350" as="sourcePoint" />
            <mxPoint x="620" y="350" as="targetPoint" />
          </mxGeometry>
        </mxCell>
        <mxCell id="Ow_TU3StZ6y1RXJ-SokE-13" value="" style="endArrow=none;html=1;rounded=0;exitX=1;exitY=0.5;exitDx=0;exitDy=0;entryX=0;entryY=0.5;entryDx=0;entryDy=0;" parent="1" source="Ow_TU3StZ6y1RXJ-SokE-9" target="Ow_TU3StZ6y1RXJ-SokE-1" edge="1">
          <mxGeometry relative="1" as="geometry">
            <mxPoint x="460" y="350" as="sourcePoint" />
            <mxPoint x="480" y="200" as="targetPoint" />
          </mxGeometry>
        </mxCell>
        <mxCell id="Ow_TU3StZ6y1RXJ-SokE-14" value="고객코드" style="ellipse;whiteSpace=wrap;html=1;align=center;fontStyle=4;fontColor=#FF0000;" parent="1" vertex="1">
          <mxGeometry x="440" y="170" width="80" height="40" as="geometry" />
        </mxCell>
        <mxCell id="Ow_TU3StZ6y1RXJ-SokE-15" value="" style="endArrow=none;html=1;rounded=0;exitX=1;exitY=0.5;exitDx=0;exitDy=0;entryX=0;entryY=0.5;entryDx=0;entryDy=0;" parent="1" source="Ow_TU3StZ6y1RXJ-SokE-1" target="Ow_TU3StZ6y1RXJ-SokE-14" edge="1">
          <mxGeometry relative="1" as="geometry">
            <mxPoint x="460" y="350" as="sourcePoint" />
            <mxPoint x="620" y="350" as="targetPoint" />
          </mxGeometry>
        </mxCell>
        <mxCell id="Ow_TU3StZ6y1RXJ-SokE-16" value="지역" style="rounded=0;whiteSpace=wrap;html=1;" parent="1" vertex="1">
          <mxGeometry x="160" y="340" width="80" height="40" as="geometry" />
        </mxCell>
        <mxCell id="Ow_TU3StZ6y1RXJ-SokE-17" value="지역코드" style="ellipse;whiteSpace=wrap;html=1;align=center;fontStyle=4;fontColor=#ff0000;verticalAlign=middle;" parent="1" vertex="1">
          <mxGeometry x="40" y="300" width="80" height="40" as="geometry" />
        </mxCell>
        <mxCell id="Ow_TU3StZ6y1RXJ-SokE-18" value="지역명" style="ellipse;whiteSpace=wrap;html=1;align=center;fontStyle=0" parent="1" vertex="1">
          <mxGeometry x="40" y="380" width="80" height="40" as="geometry" />
        </mxCell>
        <mxCell id="Ow_TU3StZ6y1RXJ-SokE-19" value="" style="endArrow=none;html=1;rounded=0;exitX=1;exitY=0.5;exitDx=0;exitDy=0;entryX=0;entryY=0.5;entryDx=0;entryDy=0;" parent="1" source="Ow_TU3StZ6y1RXJ-SokE-18" target="Ow_TU3StZ6y1RXJ-SokE-16" edge="1">
          <mxGeometry relative="1" as="geometry">
            <mxPoint x="370" y="610" as="sourcePoint" />
            <mxPoint x="470" y="570" as="targetPoint" />
          </mxGeometry>
        </mxCell>
        <mxCell id="Ow_TU3StZ6y1RXJ-SokE-20" value="" style="endArrow=none;html=1;rounded=0;exitX=1;exitY=0.5;exitDx=0;exitDy=0;entryX=0;entryY=0.5;entryDx=0;entryDy=0;" parent="1" source="Ow_TU3StZ6y1RXJ-SokE-17" target="Ow_TU3StZ6y1RXJ-SokE-16" edge="1">
          <mxGeometry relative="1" as="geometry">
            <mxPoint x="450" y="530" as="sourcePoint" />
            <mxPoint x="480" y="500" as="targetPoint" />
            <Array as="points" />
          </mxGeometry>
        </mxCell>
        <mxCell id="Ow_TU3StZ6y1RXJ-SokE-21" value="제품" style="rounded=0;whiteSpace=wrap;html=1;" parent="1" vertex="1">
          <mxGeometry x="610" y="340" width="80" height="40" as="geometry" />
        </mxCell>
        <mxCell id="Ow_TU3StZ6y1RXJ-SokE-22" value="&lt;font&gt;제품코드&lt;/font&gt;" style="ellipse;whiteSpace=wrap;html=1;align=center;fontStyle=4;fontColor=#FF0000;verticalAlign=middle;" parent="1" vertex="1">
          <mxGeometry x="570" y="260" width="70" height="40" as="geometry" />
        </mxCell>
        <mxCell id="Ow_TU3StZ6y1RXJ-SokE-23" value="가격" style="ellipse;whiteSpace=wrap;html=1;align=center;fontStyle=0" parent="1" vertex="1">
          <mxGeometry x="730" y="310" width="70" height="40" as="geometry" />
        </mxCell>
        <mxCell id="Ow_TU3StZ6y1RXJ-SokE-24" value="제품명" style="ellipse;whiteSpace=wrap;html=1;align=center;fontStyle=0" parent="1" vertex="1">
          <mxGeometry x="650" y="260" width="70" height="40" as="geometry" />
        </mxCell>
        <mxCell id="Ow_TU3StZ6y1RXJ-SokE-25" value="제품색상" style="ellipse;shape=doubleEllipse;margin=3;whiteSpace=wrap;html=1;align=center;" parent="1" vertex="1">
          <mxGeometry x="730" y="360" width="70" height="40" as="geometry" />
        </mxCell>
        <mxCell id="Ow_TU3StZ6y1RXJ-SokE-26" value="제품구분" style="ellipse;whiteSpace=wrap;html=1;align=center;fontStyle=0" parent="1" vertex="1">
          <mxGeometry x="730" y="260" width="70" height="40" as="geometry" />
        </mxCell>
        <mxCell id="Ow_TU3StZ6y1RXJ-SokE-27" value="" style="endArrow=none;html=1;rounded=0;exitX=1;exitY=0.5;exitDx=0;exitDy=0;entryX=0;entryY=0;entryDx=0;entryDy=0;" parent="1" source="Ow_TU3StZ6y1RXJ-SokE-21" target="Ow_TU3StZ6y1RXJ-SokE-25" edge="1">
          <mxGeometry relative="1" as="geometry">
            <mxPoint x="700" y="480" as="sourcePoint" />
            <mxPoint x="800" y="470" as="targetPoint" />
            <Array as="points" />
          </mxGeometry>
        </mxCell>
        <mxCell id="Ow_TU3StZ6y1RXJ-SokE-28" value="" style="endArrow=none;html=1;rounded=0;exitX=0.75;exitY=0;exitDx=0;exitDy=0;entryX=0;entryY=1;entryDx=0;entryDy=0;" parent="1" source="Ow_TU3StZ6y1RXJ-SokE-21" target="Ow_TU3StZ6y1RXJ-SokE-26" edge="1">
          <mxGeometry relative="1" as="geometry">
            <mxPoint x="710" y="360" as="sourcePoint" />
            <mxPoint x="792" y="334" as="targetPoint" />
          </mxGeometry>
        </mxCell>
        <mxCell id="Ow_TU3StZ6y1RXJ-SokE-29" value="" style="endArrow=none;html=1;rounded=0;entryX=0.5;entryY=1;entryDx=0;entryDy=0;exitX=0.75;exitY=0;exitDx=0;exitDy=0;" parent="1" source="Ow_TU3StZ6y1RXJ-SokE-21" target="Ow_TU3StZ6y1RXJ-SokE-24" edge="1">
          <mxGeometry relative="1" as="geometry">
            <mxPoint x="700" y="380" as="sourcePoint" />
            <mxPoint x="756" y="340" as="targetPoint" />
          </mxGeometry>
        </mxCell>
        <mxCell id="Ow_TU3StZ6y1RXJ-SokE-30" value="" style="endArrow=none;html=1;rounded=0;exitX=0.75;exitY=0;exitDx=0;exitDy=0;" parent="1" source="Ow_TU3StZ6y1RXJ-SokE-21" target="Ow_TU3StZ6y1RXJ-SokE-23" edge="1">
          <mxGeometry relative="1" as="geometry">
            <mxPoint x="700" y="380" as="sourcePoint" />
            <mxPoint x="782" y="354" as="targetPoint" />
          </mxGeometry>
        </mxCell>
        <mxCell id="Ow_TU3StZ6y1RXJ-SokE-31" value="" style="endArrow=none;html=1;rounded=0;exitX=0.75;exitY=0;exitDx=0;exitDy=0;entryX=0.5;entryY=1;entryDx=0;entryDy=0;" parent="1" source="Ow_TU3StZ6y1RXJ-SokE-21" target="Ow_TU3StZ6y1RXJ-SokE-22" edge="1">
          <mxGeometry relative="1" as="geometry">
            <mxPoint x="534" y="383" as="sourcePoint" />
            <mxPoint x="616" y="357" as="targetPoint" />
          </mxGeometry>
        </mxCell>
        <mxCell id="Ow_TU3StZ6y1RXJ-SokE-32" value="관리" style="rhombus;whiteSpace=wrap;html=1;" parent="1" vertex="1">
          <mxGeometry x="300" y="330" width="80" height="60" as="geometry" />
        </mxCell>
        <mxCell id="Ow_TU3StZ6y1RXJ-SokE-33" value="" style="endArrow=none;html=1;rounded=0;exitX=1;exitY=0.5;exitDx=0;exitDy=0;entryX=0;entryY=0.5;entryDx=0;entryDy=0;" parent="1" source="Ow_TU3StZ6y1RXJ-SokE-16" target="Ow_TU3StZ6y1RXJ-SokE-32" edge="1">
          <mxGeometry relative="1" as="geometry">
            <mxPoint x="330" y="360" as="sourcePoint" />
            <mxPoint x="400" y="440" as="targetPoint" />
          </mxGeometry>
        </mxCell>
        <mxCell id="Ow_TU3StZ6y1RXJ-SokE-34" value="" style="endArrow=none;html=1;rounded=0;exitX=0.5;exitY=1;exitDx=0;exitDy=0;entryX=0.5;entryY=0;entryDx=0;entryDy=0;" parent="1" source="Ow_TU3StZ6y1RXJ-SokE-1" target="Ow_TU3StZ6y1RXJ-SokE-32" edge="1">
          <mxGeometry relative="1" as="geometry">
            <mxPoint x="370" y="370" as="sourcePoint" />
            <mxPoint x="440" y="370" as="targetPoint" />
          </mxGeometry>
        </mxCell>
        <mxCell id="Ow_TU3StZ6y1RXJ-SokE-35" value="구매" style="rhombus;whiteSpace=wrap;html=1;" parent="1" vertex="1">
          <mxGeometry x="460" y="330" width="80" height="60" as="geometry" />
        </mxCell>
        <mxCell id="Ow_TU3StZ6y1RXJ-SokE-36" value="" style="endArrow=none;html=1;rounded=0;exitX=1;exitY=1;exitDx=0;exitDy=0;entryX=0.5;entryY=0;entryDx=0;entryDy=0;" parent="1" source="Ow_TU3StZ6y1RXJ-SokE-1" target="Ow_TU3StZ6y1RXJ-SokE-35" edge="1">
          <mxGeometry relative="1" as="geometry">
            <mxPoint x="550" y="230" as="sourcePoint" />
            <mxPoint x="450" y="340" as="targetPoint" />
          </mxGeometry>
        </mxCell>
        <mxCell id="Ow_TU3StZ6y1RXJ-SokE-37" value="" style="endArrow=none;html=1;rounded=0;exitX=0;exitY=0.5;exitDx=0;exitDy=0;entryX=1;entryY=0.5;entryDx=0;entryDy=0;" parent="1" source="Ow_TU3StZ6y1RXJ-SokE-21" target="Ow_TU3StZ6y1RXJ-SokE-35" edge="1">
          <mxGeometry relative="1" as="geometry">
            <mxPoint x="550" y="230" as="sourcePoint" />
            <mxPoint x="560" y="340" as="targetPoint" />
          </mxGeometry>
        </mxCell>
        <mxCell id="Ow_TU3StZ6y1RXJ-SokE-38" value="구매일자" style="ellipse;whiteSpace=wrap;html=1;align=center;fontStyle=0" parent="1" vertex="1">
          <mxGeometry x="510" y="420" width="70" height="40" as="geometry" />
        </mxCell>
        <mxCell id="Ow_TU3StZ6y1RXJ-SokE-39" value="구매수량" style="ellipse;whiteSpace=wrap;html=1;align=center;fontStyle=0" parent="1" vertex="1">
          <mxGeometry x="420" y="420" width="70" height="40" as="geometry" />
        </mxCell>
        <mxCell id="Ow_TU3StZ6y1RXJ-SokE-40" value="" style="endArrow=none;html=1;rounded=0;exitX=0.5;exitY=0;exitDx=0;exitDy=0;entryX=0.5;entryY=1;entryDx=0;entryDy=0;" parent="1" source="Ow_TU3StZ6y1RXJ-SokE-39" target="Ow_TU3StZ6y1RXJ-SokE-35" edge="1">
          <mxGeometry relative="1" as="geometry">
            <mxPoint x="650" y="390" as="sourcePoint" />
            <mxPoint x="600" y="370" as="targetPoint" />
          </mxGeometry>
        </mxCell>
        <mxCell id="Ow_TU3StZ6y1RXJ-SokE-41" value="" style="endArrow=none;html=1;rounded=0;exitX=0.5;exitY=0;exitDx=0;exitDy=0;entryX=0.5;entryY=1;entryDx=0;entryDy=0;" parent="1" source="Ow_TU3StZ6y1RXJ-SokE-38" target="Ow_TU3StZ6y1RXJ-SokE-35" edge="1">
          <mxGeometry relative="1" as="geometry">
            <mxPoint x="660" y="400" as="sourcePoint" />
            <mxPoint x="610" y="380" as="targetPoint" />
          </mxGeometry>
        </mxCell>
        <mxCell id="Ow_TU3StZ6y1RXJ-SokE-42" value="N" style="text;html=1;align=center;verticalAlign=middle;resizable=0;points=[];autosize=1;strokeColor=none;fillColor=none;" parent="1" vertex="1">
          <mxGeometry x="310" y="300" width="30" height="30" as="geometry" />
        </mxCell>
        <mxCell id="Ow_TU3StZ6y1RXJ-SokE-43" value="1" style="text;html=1;align=center;verticalAlign=middle;resizable=0;points=[];autosize=1;strokeColor=none;fillColor=none;" parent="1" vertex="1">
          <mxGeometry x="270" y="360" width="30" height="30" as="geometry" />
        </mxCell>
        <mxCell id="Ow_TU3StZ6y1RXJ-SokE-44" value="N" style="text;html=1;align=center;verticalAlign=middle;resizable=0;points=[];autosize=1;strokeColor=none;fillColor=none;" parent="1" vertex="1">
          <mxGeometry x="530" y="330" width="30" height="30" as="geometry" />
        </mxCell>
        <mxCell id="Ow_TU3StZ6y1RXJ-SokE-45" value="M" style="text;html=1;align=center;verticalAlign=middle;resizable=0;points=[];autosize=1;strokeColor=none;fillColor=none;" parent="1" vertex="1">
          <mxGeometry x="490" y="305" width="30" height="30" as="geometry" />
        </mxCell>
        <mxCell id="Ow_TU3StZ6y1RXJ-SokE-46" value="1" style="text;html=1;align=center;verticalAlign=middle;resizable=0;points=[];autosize=1;strokeColor=none;fillColor=none;" parent="1" vertex="1">
          <mxGeometry x="399" y="238" width="30" height="30" as="geometry" />
        </mxCell>
        <mxCell id="Ow_TU3StZ6y1RXJ-SokE-47" value="1" style="text;html=1;align=center;verticalAlign=middle;resizable=0;points=[];autosize=1;strokeColor=none;fillColor=none;" parent="1" vertex="1">
          <mxGeometry x="580" y="330" width="30" height="30" as="geometry" />
        </mxCell>
        <mxCell id="Ow_TU3StZ6y1RXJ-SokE-48" value="구매" style="swimlane;childLayout=stackLayout;horizontal=1;startSize=25;horizontalStack=0;rounded=1;fontSize=14;fontStyle=0;strokeWidth=2;resizeParent=0;resizeLast=1;shadow=0;dashed=0;align=center;arcSize=4;whiteSpace=wrap;html=1;" parent="1" vertex="1">
          <mxGeometry x="399" y="480" width="160" height="120" as="geometry" />
        </mxCell>
        <mxCell id="Ow_TU3StZ6y1RXJ-SokE-49" value="&lt;u&gt;&lt;font color=&quot;#ff0000&quot;&gt;구매번호(PK)&lt;/font&gt;&lt;/u&gt;&lt;br&gt;고객코드(FK)&lt;br&gt;제품코드(FK)&lt;br&gt;구매수량&lt;br&gt;구매일자" style="align=left;strokeColor=none;fillColor=none;spacingLeft=4;fontSize=12;verticalAlign=top;resizable=0;rotatable=0;part=1;html=1;" parent="Ow_TU3StZ6y1RXJ-SokE-48" vertex="1">
          <mxGeometry y="25" width="160" height="95" as="geometry" />
        </mxCell>
        <mxCell id="Ow_TU3StZ6y1RXJ-SokE-50" value="" style="edgeStyle=entityRelationEdgeStyle;fontSize=12;html=1;endArrow=ERoneToMany;startArrow=ERmandOne;rounded=0;entryX=0;entryY=0.5;entryDx=0;entryDy=0;exitX=1;exitY=0.5;exitDx=0;exitDy=0;" parent="1" source="yse6lNV3K0nOs2ZHp3iA-17" target="Ow_TU3StZ6y1RXJ-SokE-48" edge="1">
          <mxGeometry width="100" height="100" relative="1" as="geometry">
            <mxPoint x="411.5" y="720" as="sourcePoint" />
            <mxPoint x="498.5" y="756" as="targetPoint" />
            <Array as="points">
              <mxPoint x="423.5" y="852" />
              <mxPoint x="535.5" y="759" />
              <mxPoint x="423.5" y="862" />
            </Array>
          </mxGeometry>
        </mxCell>
        <mxCell id="Ow_TU3StZ6y1RXJ-SokE-51" value="" style="edgeStyle=entityRelationEdgeStyle;fontSize=12;html=1;endArrow=ERoneToMany;startArrow=ERmandOne;rounded=0;entryX=1;entryY=0.5;entryDx=0;entryDy=0;exitX=-0.002;exitY=0.389;exitDx=0;exitDy=0;exitPerimeter=0;" parent="1" source="mWZHtibvBv7XCX4P4cAg-16" target="Ow_TU3StZ6y1RXJ-SokE-49" edge="1">
          <mxGeometry width="100" height="100" relative="1" as="geometry">
            <mxPoint x="526" y="720" as="sourcePoint" />
            <mxPoint x="609" y="690" as="targetPoint" />
            <Array as="points">
              <mxPoint x="632.5" y="1002" />
              <mxPoint x="639" y="790" />
              <mxPoint x="719" y="790" />
              <mxPoint x="744.5" y="909" />
              <mxPoint x="632.5" y="1012" />
            </Array>
          </mxGeometry>
        </mxCell>
      </root>
    </mxGraphModel>
  </diagram>
  <diagram id="Qb-eOFRKzgBL0yCrAPQC" name="페이지-3">
    <mxGraphModel dx="1075" dy="1451" grid="1" gridSize="10" guides="1" tooltips="1" connect="1" arrows="1" fold="1" page="0" pageScale="1" pageWidth="827" pageHeight="1169" math="0" shadow="0">
      <root>
        <mxCell id="0" />
        <mxCell id="1" parent="0" />
        <mxCell id="8yQ5p8wJy4T9rwaX6y__-2" value="&lt;u&gt;학번&lt;/u&gt;" style="ellipse;whiteSpace=wrap;html=1;align=center;fontSize=16;" vertex="1" parent="1">
          <mxGeometry x="470" y="560" width="100" height="40" as="geometry" />
        </mxCell>
        <mxCell id="h5XiZPwMv6HfIvMZQ2U4-1" value="학생" style="whiteSpace=wrap;html=1;align=center;fontSize=16;" vertex="1" parent="1">
          <mxGeometry x="470" y="390" width="100" height="40" as="geometry" />
        </mxCell>
        <mxCell id="h5XiZPwMv6HfIvMZQ2U4-2" value="교수" style="whiteSpace=wrap;html=1;align=center;fontSize=16;" vertex="1" parent="1">
          <mxGeometry x="270" y="190" width="100" height="40" as="geometry" />
        </mxCell>
        <mxCell id="h5XiZPwMv6HfIvMZQ2U4-3" value="학과" style="whiteSpace=wrap;html=1;align=center;fontSize=16;" vertex="1" parent="1">
          <mxGeometry x="470" y="190" width="100" height="40" as="geometry" />
        </mxCell>
        <mxCell id="h5XiZPwMv6HfIvMZQ2U4-4" value="개설과목" style="whiteSpace=wrap;html=1;align=center;fontSize=16;" vertex="1" parent="1">
          <mxGeometry x="270" y="390" width="100" height="40" as="geometry" />
        </mxCell>
        <mxCell id="h5XiZPwMv6HfIvMZQ2U4-5" value="키" style="ellipse;whiteSpace=wrap;html=1;align=center;fontSize=16;" vertex="1" parent="1">
          <mxGeometry x="600" y="480" width="100" height="40" as="geometry" />
        </mxCell>
        <mxCell id="h5XiZPwMv6HfIvMZQ2U4-10" value="시작일" style="ellipse;whiteSpace=wrap;html=1;align=center;fontSize=16;" vertex="1" parent="1">
          <mxGeometry x="170" y="510" width="100" height="40" as="geometry" />
        </mxCell>
        <mxCell id="h5XiZPwMv6HfIvMZQ2U4-11" value="&lt;u&gt;과목코드&lt;/u&gt;" style="ellipse;whiteSpace=wrap;html=1;align=center;fontSize=16;" vertex="1" parent="1">
          <mxGeometry x="100" y="390" width="100" height="40" as="geometry" />
        </mxCell>
        <mxCell id="h5XiZPwMv6HfIvMZQ2U4-12" value="종료일" style="ellipse;whiteSpace=wrap;html=1;align=center;fontSize=16;" vertex="1" parent="1">
          <mxGeometry x="270" y="560" width="100" height="40" as="geometry" />
        </mxCell>
        <mxCell id="h5XiZPwMv6HfIvMZQ2U4-14" value="&lt;u&gt;학과코드&lt;/u&gt;" style="ellipse;whiteSpace=wrap;html=1;align=center;fontSize=16;" vertex="1" parent="1">
          <mxGeometry x="470" y="80" width="100" height="40" as="geometry" />
        </mxCell>
        <mxCell id="h5XiZPwMv6HfIvMZQ2U4-15" value="&lt;u&gt;학과명&lt;/u&gt;" style="ellipse;whiteSpace=wrap;html=1;align=center;fontSize=16;" vertex="1" parent="1">
          <mxGeometry x="640" y="170" width="100" height="40" as="geometry" />
        </mxCell>
        <mxCell id="h5XiZPwMv6HfIvMZQ2U4-16" value="&lt;u&gt;교수명&lt;/u&gt;" style="ellipse;whiteSpace=wrap;html=1;align=center;fontSize=16;" vertex="1" parent="1">
          <mxGeometry x="118" y="170" width="100" height="40" as="geometry" />
        </mxCell>
        <mxCell id="h5XiZPwMv6HfIvMZQ2U4-17" value="&lt;u&gt;교수코드&lt;/u&gt;" style="ellipse;whiteSpace=wrap;html=1;align=center;fontSize=16;" vertex="1" parent="1">
          <mxGeometry x="270" y="80" width="100" height="40" as="geometry" />
        </mxCell>
        <mxCell id="h5XiZPwMv6HfIvMZQ2U4-21" value="소속" style="shape=rhombus;perimeter=rhombusPerimeter;whiteSpace=wrap;html=1;align=center;fontSize=16;" vertex="1" parent="1">
          <mxGeometry x="400" y="190" width="50" height="40" as="geometry" />
        </mxCell>
        <mxCell id="h5XiZPwMv6HfIvMZQ2U4-23" value="소속" style="shape=rhombus;perimeter=rhombusPerimeter;whiteSpace=wrap;html=1;align=center;fontSize=16;" vertex="1" parent="1">
          <mxGeometry x="495" y="290" width="50" height="40" as="geometry" />
        </mxCell>
        <mxCell id="h5XiZPwMv6HfIvMZQ2U4-24" value="강의" style="shape=rhombus;perimeter=rhombusPerimeter;whiteSpace=wrap;html=1;align=center;fontSize=16;" vertex="1" parent="1">
          <mxGeometry x="295" y="290" width="50" height="40" as="geometry" />
        </mxCell>
        <mxCell id="h5XiZPwMv6HfIvMZQ2U4-25" value="수강" style="shape=rhombus;perimeter=rhombusPerimeter;whiteSpace=wrap;html=1;align=center;fontSize=16;" vertex="1" parent="1">
          <mxGeometry x="400" y="390" width="50" height="40" as="geometry" />
        </mxCell>
        <mxCell id="h5XiZPwMv6HfIvMZQ2U4-26" value="N" style="text;html=1;align=center;verticalAlign=middle;resizable=0;points=[];autosize=1;strokeColor=none;fillColor=none;fontSize=16;" vertex="1" parent="1">
          <mxGeometry x="380" y="178" width="40" height="30" as="geometry" />
        </mxCell>
        <mxCell id="h5XiZPwMv6HfIvMZQ2U4-27" value="1" style="text;html=1;align=center;verticalAlign=middle;resizable=0;points=[];autosize=1;strokeColor=none;fillColor=none;fontSize=16;" vertex="1" parent="1">
          <mxGeometry x="435" y="178" width="30" height="30" as="geometry" />
        </mxCell>
        <mxCell id="h5XiZPwMv6HfIvMZQ2U4-34" value="" style="endArrow=none;html=1;rounded=0;fontSize=12;startSize=8;endSize=8;curved=1;exitX=1;exitY=0.5;exitDx=0;exitDy=0;entryX=0;entryY=0.5;entryDx=0;entryDy=0;" edge="1" parent="1" source="h5XiZPwMv6HfIvMZQ2U4-2" target="h5XiZPwMv6HfIvMZQ2U4-21">
          <mxGeometry relative="1" as="geometry">
            <mxPoint x="350" y="270" as="sourcePoint" />
            <mxPoint x="510" y="270" as="targetPoint" />
          </mxGeometry>
        </mxCell>
        <mxCell id="h5XiZPwMv6HfIvMZQ2U4-36" value="" style="endArrow=none;html=1;rounded=0;fontSize=12;startSize=8;endSize=8;curved=1;exitX=0.5;exitY=1;exitDx=0;exitDy=0;entryX=0.5;entryY=0;entryDx=0;entryDy=0;" edge="1" parent="1" source="h5XiZPwMv6HfIvMZQ2U4-2" target="h5XiZPwMv6HfIvMZQ2U4-24">
          <mxGeometry relative="1" as="geometry">
            <mxPoint x="345" y="270" as="sourcePoint" />
            <mxPoint x="505" y="270" as="targetPoint" />
          </mxGeometry>
        </mxCell>
        <mxCell id="h5XiZPwMv6HfIvMZQ2U4-37" value="" style="endArrow=none;html=1;rounded=0;fontSize=12;startSize=8;endSize=8;curved=1;exitX=0.5;exitY=1;exitDx=0;exitDy=0;entryX=0.5;entryY=0;entryDx=0;entryDy=0;" edge="1" parent="1" source="h5XiZPwMv6HfIvMZQ2U4-24" target="h5XiZPwMv6HfIvMZQ2U4-4">
          <mxGeometry relative="1" as="geometry">
            <mxPoint x="350" y="320" as="sourcePoint" />
            <mxPoint x="510" y="320" as="targetPoint" />
          </mxGeometry>
        </mxCell>
        <mxCell id="h5XiZPwMv6HfIvMZQ2U4-38" value="" style="endArrow=none;html=1;rounded=0;fontSize=12;startSize=8;endSize=8;curved=1;exitX=0.5;exitY=1;exitDx=0;exitDy=0;entryX=0.5;entryY=0;entryDx=0;entryDy=0;" edge="1" parent="1" source="h5XiZPwMv6HfIvMZQ2U4-3" target="h5XiZPwMv6HfIvMZQ2U4-23">
          <mxGeometry relative="1" as="geometry">
            <mxPoint x="360" y="330" as="sourcePoint" />
            <mxPoint x="520" y="290" as="targetPoint" />
          </mxGeometry>
        </mxCell>
        <mxCell id="h5XiZPwMv6HfIvMZQ2U4-39" value="" style="endArrow=none;html=1;rounded=0;fontSize=12;startSize=8;endSize=8;curved=1;exitX=1;exitY=0.5;exitDx=0;exitDy=0;entryX=0;entryY=0.5;entryDx=0;entryDy=0;" edge="1" parent="1" source="h5XiZPwMv6HfIvMZQ2U4-21" target="h5XiZPwMv6HfIvMZQ2U4-3">
          <mxGeometry relative="1" as="geometry">
            <mxPoint x="370" y="340" as="sourcePoint" />
            <mxPoint x="530" y="340" as="targetPoint" />
          </mxGeometry>
        </mxCell>
        <mxCell id="h5XiZPwMv6HfIvMZQ2U4-40" value="" style="endArrow=none;html=1;rounded=0;fontSize=12;startSize=8;endSize=8;curved=1;exitX=0.5;exitY=0;exitDx=0;exitDy=0;entryX=0.5;entryY=1;entryDx=0;entryDy=0;" edge="1" parent="1" source="h5XiZPwMv6HfIvMZQ2U4-1" target="h5XiZPwMv6HfIvMZQ2U4-23">
          <mxGeometry relative="1" as="geometry">
            <mxPoint x="380" y="350" as="sourcePoint" />
            <mxPoint x="540" y="350" as="targetPoint" />
          </mxGeometry>
        </mxCell>
        <mxCell id="h5XiZPwMv6HfIvMZQ2U4-41" value="" style="endArrow=none;html=1;rounded=0;fontSize=12;startSize=8;endSize=8;curved=1;exitX=1;exitY=0.5;exitDx=0;exitDy=0;entryX=0;entryY=0.5;entryDx=0;entryDy=0;" edge="1" parent="1" source="h5XiZPwMv6HfIvMZQ2U4-4" target="h5XiZPwMv6HfIvMZQ2U4-25">
          <mxGeometry relative="1" as="geometry">
            <mxPoint x="390" y="360" as="sourcePoint" />
            <mxPoint x="550" y="360" as="targetPoint" />
          </mxGeometry>
        </mxCell>
        <mxCell id="h5XiZPwMv6HfIvMZQ2U4-42" value="" style="endArrow=none;html=1;rounded=0;fontSize=12;startSize=8;endSize=8;curved=1;entryX=0;entryY=0.5;entryDx=0;entryDy=0;exitX=1;exitY=0.5;exitDx=0;exitDy=0;" edge="1" parent="1" source="h5XiZPwMv6HfIvMZQ2U4-25" target="h5XiZPwMv6HfIvMZQ2U4-1">
          <mxGeometry relative="1" as="geometry">
            <mxPoint x="400" y="370" as="sourcePoint" />
            <mxPoint x="560" y="370" as="targetPoint" />
          </mxGeometry>
        </mxCell>
        <mxCell id="h5XiZPwMv6HfIvMZQ2U4-43" value="" style="endArrow=none;html=1;rounded=0;fontSize=12;startSize=8;endSize=8;curved=1;entryX=0;entryY=0.5;entryDx=0;entryDy=0;exitX=1;exitY=0.5;exitDx=0;exitDy=0;" edge="1" parent="1" source="h5XiZPwMv6HfIvMZQ2U4-1" target="U6ZCY74oqtx2swsBlttR-29">
          <mxGeometry relative="1" as="geometry">
            <mxPoint x="410" y="380" as="sourcePoint" />
            <mxPoint x="650" y="410" as="targetPoint" />
          </mxGeometry>
        </mxCell>
        <mxCell id="h5XiZPwMv6HfIvMZQ2U4-44" value="" style="endArrow=none;html=1;rounded=0;fontSize=12;startSize=8;endSize=8;curved=1;exitX=0;exitY=0.5;exitDx=0;exitDy=0;entryX=0.5;entryY=0;entryDx=0;entryDy=0;" edge="1" parent="1" source="h5XiZPwMv6HfIvMZQ2U4-15" target="h5XiZPwMv6HfIvMZQ2U4-3">
          <mxGeometry relative="1" as="geometry">
            <mxPoint x="420" y="390" as="sourcePoint" />
            <mxPoint x="580" y="390" as="targetPoint" />
          </mxGeometry>
        </mxCell>
        <mxCell id="h5XiZPwMv6HfIvMZQ2U4-45" value="" style="endArrow=none;html=1;rounded=0;fontSize=12;startSize=8;endSize=8;curved=1;exitX=0.5;exitY=1;exitDx=0;exitDy=0;entryX=0.5;entryY=0;entryDx=0;entryDy=0;" edge="1" parent="1" source="h5XiZPwMv6HfIvMZQ2U4-14" target="h5XiZPwMv6HfIvMZQ2U4-3">
          <mxGeometry relative="1" as="geometry">
            <mxPoint x="430" y="400" as="sourcePoint" />
            <mxPoint x="590" y="400" as="targetPoint" />
          </mxGeometry>
        </mxCell>
        <mxCell id="h5XiZPwMv6HfIvMZQ2U4-46" value="1" style="text;html=1;align=center;verticalAlign=middle;resizable=0;points=[];autosize=1;strokeColor=none;fillColor=none;fontSize=16;" vertex="1" parent="1">
          <mxGeometry x="315" y="268" width="30" height="30" as="geometry" />
        </mxCell>
        <mxCell id="h5XiZPwMv6HfIvMZQ2U4-47" value="N" style="text;html=1;align=center;verticalAlign=middle;resizable=0;points=[];autosize=1;strokeColor=none;fillColor=none;fontSize=16;" vertex="1" parent="1">
          <mxGeometry x="310" y="320" width="40" height="30" as="geometry" />
        </mxCell>
        <mxCell id="h5XiZPwMv6HfIvMZQ2U4-48" value="M" style="text;html=1;align=center;verticalAlign=middle;resizable=0;points=[];autosize=1;strokeColor=none;fillColor=none;fontSize=16;" vertex="1" parent="1">
          <mxGeometry x="380" y="378" width="40" height="30" as="geometry" />
        </mxCell>
        <mxCell id="h5XiZPwMv6HfIvMZQ2U4-49" value="N" style="text;html=1;align=center;verticalAlign=middle;resizable=0;points=[];autosize=1;strokeColor=none;fillColor=none;fontSize=16;" vertex="1" parent="1">
          <mxGeometry x="430" y="378" width="40" height="30" as="geometry" />
        </mxCell>
        <mxCell id="h5XiZPwMv6HfIvMZQ2U4-50" value="N" style="text;html=1;align=center;verticalAlign=middle;resizable=0;points=[];autosize=1;strokeColor=none;fillColor=none;fontSize=16;" vertex="1" parent="1">
          <mxGeometry x="510" y="320" width="40" height="30" as="geometry" />
        </mxCell>
        <mxCell id="h5XiZPwMv6HfIvMZQ2U4-51" value="1" style="text;html=1;align=center;verticalAlign=middle;resizable=0;points=[];autosize=1;strokeColor=none;fillColor=none;fontSize=16;" vertex="1" parent="1">
          <mxGeometry x="520" y="268" width="30" height="30" as="geometry" />
        </mxCell>
        <mxCell id="h5XiZPwMv6HfIvMZQ2U4-55" value="" style="endArrow=none;html=1;rounded=0;fontSize=12;startSize=8;endSize=8;curved=1;exitX=1;exitY=0;exitDx=0;exitDy=0;entryX=0.5;entryY=1;entryDx=0;entryDy=0;" edge="1" parent="1" source="h5XiZPwMv6HfIvMZQ2U4-10" target="h5XiZPwMv6HfIvMZQ2U4-4">
          <mxGeometry relative="1" as="geometry">
            <mxPoint x="340" y="310" as="sourcePoint" />
            <mxPoint x="500" y="310" as="targetPoint" />
          </mxGeometry>
        </mxCell>
        <mxCell id="h5XiZPwMv6HfIvMZQ2U4-56" value="" style="endArrow=none;html=1;rounded=0;fontSize=12;startSize=8;endSize=8;curved=1;exitX=1;exitY=0.5;exitDx=0;exitDy=0;entryX=0;entryY=0.5;entryDx=0;entryDy=0;" edge="1" parent="1" source="h5XiZPwMv6HfIvMZQ2U4-11" target="h5XiZPwMv6HfIvMZQ2U4-4">
          <mxGeometry relative="1" as="geometry">
            <mxPoint x="340" y="310" as="sourcePoint" />
            <mxPoint x="500" y="310" as="targetPoint" />
          </mxGeometry>
        </mxCell>
        <mxCell id="h5XiZPwMv6HfIvMZQ2U4-59" value="" style="endArrow=none;html=1;rounded=0;fontSize=12;startSize=8;endSize=8;curved=1;exitX=1;exitY=0;exitDx=0;exitDy=0;entryX=0;entryY=1;entryDx=0;entryDy=0;" edge="1" parent="1" source="U6ZCY74oqtx2swsBlttR-28" target="h5XiZPwMv6HfIvMZQ2U4-4">
          <mxGeometry relative="1" as="geometry">
            <mxPoint x="203.1677815203409" y="465.78323725773475" as="sourcePoint" />
            <mxPoint x="520" y="330" as="targetPoint" />
          </mxGeometry>
        </mxCell>
        <mxCell id="h5XiZPwMv6HfIvMZQ2U4-60" value="" style="endArrow=none;html=1;rounded=0;fontSize=12;startSize=8;endSize=8;curved=1;exitX=1;exitY=0.5;exitDx=0;exitDy=0;entryX=0.5;entryY=0;entryDx=0;entryDy=0;" edge="1" parent="1" source="h5XiZPwMv6HfIvMZQ2U4-16" target="h5XiZPwMv6HfIvMZQ2U4-2">
          <mxGeometry relative="1" as="geometry">
            <mxPoint x="370" y="340" as="sourcePoint" />
            <mxPoint x="530" y="340" as="targetPoint" />
          </mxGeometry>
        </mxCell>
        <mxCell id="h5XiZPwMv6HfIvMZQ2U4-61" value="" style="endArrow=none;html=1;rounded=0;fontSize=12;startSize=8;endSize=8;curved=1;entryX=0.5;entryY=1;entryDx=0;entryDy=0;exitX=0.5;exitY=0;exitDx=0;exitDy=0;" edge="1" parent="1" source="h5XiZPwMv6HfIvMZQ2U4-2" target="h5XiZPwMv6HfIvMZQ2U4-17">
          <mxGeometry relative="1" as="geometry">
            <mxPoint x="380" y="350" as="sourcePoint" />
            <mxPoint x="540" y="350" as="targetPoint" />
          </mxGeometry>
        </mxCell>
        <mxCell id="h5XiZPwMv6HfIvMZQ2U4-63" value="" style="endArrow=none;html=1;rounded=0;fontSize=12;startSize=8;endSize=8;curved=1;exitX=0.5;exitY=0;exitDx=0;exitDy=0;entryX=0.5;entryY=1;entryDx=0;entryDy=0;" edge="1" parent="1" source="h5XiZPwMv6HfIvMZQ2U4-12" target="h5XiZPwMv6HfIvMZQ2U4-4">
          <mxGeometry relative="1" as="geometry">
            <mxPoint x="285" y="556" as="sourcePoint" />
            <mxPoint x="315" y="450" as="targetPoint" />
          </mxGeometry>
        </mxCell>
        <mxCell id="h5XiZPwMv6HfIvMZQ2U4-66" value="" style="endArrow=none;html=1;rounded=0;fontSize=12;startSize=8;endSize=8;curved=1;exitX=0;exitY=0;exitDx=0;exitDy=0;entryX=0.75;entryY=1;entryDx=0;entryDy=0;" edge="1" parent="1" source="h5XiZPwMv6HfIvMZQ2U4-5" target="h5XiZPwMv6HfIvMZQ2U4-1">
          <mxGeometry relative="1" as="geometry">
            <mxPoint x="353" y="562" as="sourcePoint" />
            <mxPoint x="325" y="460" as="targetPoint" />
          </mxGeometry>
        </mxCell>
        <mxCell id="h5XiZPwMv6HfIvMZQ2U4-67" value="" style="endArrow=none;html=1;rounded=0;fontSize=12;startSize=8;endSize=8;curved=1;exitX=0.5;exitY=0;exitDx=0;exitDy=0;entryX=0.5;entryY=1;entryDx=0;entryDy=0;" edge="1" parent="1" source="8yQ5p8wJy4T9rwaX6y__-2" target="h5XiZPwMv6HfIvMZQ2U4-1">
          <mxGeometry relative="1" as="geometry">
            <mxPoint x="363" y="572" as="sourcePoint" />
            <mxPoint x="335" y="470" as="targetPoint" />
          </mxGeometry>
        </mxCell>
        <mxCell id="U6ZCY74oqtx2swsBlttR-2" value="학생" style="swimlane;childLayout=stackLayout;horizontal=1;startSize=50;horizontalStack=0;rounded=1;fontSize=14;fontStyle=0;strokeWidth=2;resizeParent=0;resizeLast=1;shadow=0;dashed=0;align=center;arcSize=4;whiteSpace=wrap;html=1;" vertex="1" parent="1">
          <mxGeometry x="362.5" y="720" width="155" height="120" as="geometry" />
        </mxCell>
        <mxCell id="U6ZCY74oqtx2swsBlttR-3" value="이름&lt;br&gt;&lt;u&gt;학번(PK)&lt;br&gt;&lt;/u&gt;키&lt;br&gt;&lt;font color=&quot;#ff0000&quot;&gt;&lt;u&gt;학과코드(FK)&lt;/u&gt;&lt;/font&gt;" style="align=left;strokeColor=none;fillColor=none;spacingLeft=4;fontSize=12;verticalAlign=top;resizable=0;rotatable=0;part=1;html=1;" vertex="1" parent="U6ZCY74oqtx2swsBlttR-2">
          <mxGeometry y="50" width="155" height="70" as="geometry" />
        </mxCell>
        <mxCell id="U6ZCY74oqtx2swsBlttR-4" value="학과" style="swimlane;childLayout=stackLayout;horizontal=1;startSize=50;horizontalStack=0;rounded=1;fontSize=14;fontStyle=0;strokeWidth=2;resizeParent=0;resizeLast=1;shadow=0;dashed=0;align=center;arcSize=4;whiteSpace=wrap;html=1;" vertex="1" parent="1">
          <mxGeometry x="80" y="720" width="160" height="120" as="geometry" />
        </mxCell>
        <mxCell id="U6ZCY74oqtx2swsBlttR-5" value="&lt;u&gt;학과코드(PK)&lt;/u&gt;&lt;br&gt;학과명" style="align=left;strokeColor=none;fillColor=none;spacingLeft=4;fontSize=12;verticalAlign=top;resizable=0;rotatable=0;part=1;html=1;" vertex="1" parent="U6ZCY74oqtx2swsBlttR-4">
          <mxGeometry y="50" width="160" height="70" as="geometry" />
        </mxCell>
        <mxCell id="U6ZCY74oqtx2swsBlttR-6" value="수강" style="swimlane;childLayout=stackLayout;horizontal=1;startSize=50;horizontalStack=0;rounded=1;fontSize=14;fontStyle=0;strokeWidth=2;resizeParent=0;resizeLast=1;shadow=0;dashed=0;align=center;arcSize=4;whiteSpace=wrap;html=1;" vertex="1" parent="1">
          <mxGeometry x="640" y="720" width="160" height="120" as="geometry" />
        </mxCell>
        <mxCell id="U6ZCY74oqtx2swsBlttR-7" value="수강신청번호(AK)&lt;br&gt;&lt;font style=&quot;&quot; color=&quot;#ff0000&quot;&gt;&lt;u&gt;학번(FK, PK)&lt;br&gt;과목코드(FK, PK)&lt;br&gt;&lt;br&gt;&lt;/u&gt;&lt;/font&gt;" style="align=left;strokeColor=none;fillColor=none;spacingLeft=4;fontSize=12;verticalAlign=top;resizable=0;rotatable=0;part=1;html=1;" vertex="1" parent="U6ZCY74oqtx2swsBlttR-6">
          <mxGeometry y="50" width="160" height="70" as="geometry" />
        </mxCell>
        <mxCell id="U6ZCY74oqtx2swsBlttR-9" value="교수" style="swimlane;childLayout=stackLayout;horizontal=1;startSize=50;horizontalStack=0;rounded=1;fontSize=14;fontStyle=0;strokeWidth=2;resizeParent=0;resizeLast=1;shadow=0;dashed=0;align=center;arcSize=4;whiteSpace=wrap;html=1;" vertex="1" parent="1">
          <mxGeometry x="80" y="960" width="160" height="120" as="geometry" />
        </mxCell>
        <mxCell id="U6ZCY74oqtx2swsBlttR-10" value="&lt;u&gt;교수코드(PK)&lt;br&gt;&lt;/u&gt;교수명&lt;br&gt;&lt;font style=&quot;&quot; color=&quot;#ff0000&quot;&gt;&lt;u&gt;학과코드(FK)&lt;/u&gt;&lt;/font&gt;" style="align=left;strokeColor=none;fillColor=none;spacingLeft=4;fontSize=12;verticalAlign=top;resizable=0;rotatable=0;part=1;html=1;" vertex="1" parent="U6ZCY74oqtx2swsBlttR-9">
          <mxGeometry y="50" width="160" height="70" as="geometry" />
        </mxCell>
        <mxCell id="U6ZCY74oqtx2swsBlttR-12" value="과목" style="swimlane;childLayout=stackLayout;horizontal=1;startSize=50;horizontalStack=0;rounded=1;fontSize=14;fontStyle=0;strokeWidth=2;resizeParent=0;resizeLast=1;shadow=0;dashed=0;align=center;arcSize=4;whiteSpace=wrap;html=1;" vertex="1" parent="1">
          <mxGeometry x="640" y="960" width="160" height="140" as="geometry" />
        </mxCell>
        <mxCell id="U6ZCY74oqtx2swsBlttR-13" value="&lt;u&gt;과목코드(PK)&lt;br&gt;&lt;/u&gt;과목명&lt;br&gt;시작일&lt;br&gt;종료일&lt;br&gt;&lt;font color=&quot;#ff0000&quot;&gt;&lt;u&gt;교수코드(FK)&lt;/u&gt;&lt;/font&gt;" style="align=left;strokeColor=none;fillColor=none;spacingLeft=4;fontSize=12;verticalAlign=top;resizable=0;rotatable=0;part=1;html=1;" vertex="1" parent="U6ZCY74oqtx2swsBlttR-12">
          <mxGeometry y="50" width="160" height="90" as="geometry" />
        </mxCell>
        <mxCell id="U6ZCY74oqtx2swsBlttR-22" value="" style="edgeStyle=entityRelationEdgeStyle;fontSize=12;html=1;endArrow=ERoneToMany;startArrow=ERmandOne;rounded=0;startSize=8;endSize=8;curved=1;entryX=0.5;entryY=0;entryDx=0;entryDy=0;" edge="1" parent="1" target="U6ZCY74oqtx2swsBlttR-9">
          <mxGeometry width="100" height="100" relative="1" as="geometry">
            <mxPoint x="160" y="840" as="sourcePoint" />
            <mxPoint x="445" y="920" as="targetPoint" />
          </mxGeometry>
        </mxCell>
        <mxCell id="U6ZCY74oqtx2swsBlttR-24" value="" style="edgeStyle=entityRelationEdgeStyle;fontSize=12;html=1;endArrow=ERoneToMany;startArrow=ERmandOne;rounded=0;startSize=8;endSize=8;curved=1;entryX=-0.018;entryY=0.181;entryDx=0;entryDy=0;entryPerimeter=0;exitX=1;exitY=0.25;exitDx=0;exitDy=0;" edge="1" parent="1" source="U6ZCY74oqtx2swsBlttR-10" target="U6ZCY74oqtx2swsBlttR-13">
          <mxGeometry width="100" height="100" relative="1" as="geometry">
            <mxPoint x="240" y="1038" as="sourcePoint" />
            <mxPoint x="462.5" y="920" as="targetPoint" />
          </mxGeometry>
        </mxCell>
        <mxCell id="U6ZCY74oqtx2swsBlttR-25" value="" style="edgeStyle=entityRelationEdgeStyle;fontSize=12;html=1;endArrow=ERoneToMany;startArrow=ERmandOne;rounded=0;startSize=8;endSize=8;curved=1;entryX=0;entryY=0;entryDx=0;entryDy=0;exitX=1;exitY=0;exitDx=0;exitDy=0;" edge="1" parent="1" source="U6ZCY74oqtx2swsBlttR-5" target="U6ZCY74oqtx2swsBlttR-3">
          <mxGeometry width="100" height="100" relative="1" as="geometry">
            <mxPoint x="270" y="920" as="sourcePoint" />
            <mxPoint x="667" y="920" as="targetPoint" />
          </mxGeometry>
        </mxCell>
        <mxCell id="U6ZCY74oqtx2swsBlttR-26" value="" style="edgeStyle=entityRelationEdgeStyle;fontSize=12;html=1;endArrow=ERoneToMany;startArrow=ERmandOne;rounded=0;startSize=8;endSize=8;curved=1;entryX=0.5;entryY=1;entryDx=0;entryDy=0;exitX=0.5;exitY=0;exitDx=0;exitDy=0;" edge="1" parent="1" source="U6ZCY74oqtx2swsBlttR-12" target="U6ZCY74oqtx2swsBlttR-7">
          <mxGeometry width="100" height="100" relative="1" as="geometry">
            <mxPoint x="520" y="860" as="sourcePoint" />
            <mxPoint x="520" y="980" as="targetPoint" />
          </mxGeometry>
        </mxCell>
        <mxCell id="U6ZCY74oqtx2swsBlttR-27" value="" style="edgeStyle=entityRelationEdgeStyle;fontSize=12;html=1;endArrow=ERoneToMany;startArrow=ERmandOne;rounded=0;startSize=8;endSize=8;curved=1;entryX=0;entryY=0;entryDx=0;entryDy=0;exitX=1;exitY=0;exitDx=0;exitDy=0;" edge="1" parent="1" source="U6ZCY74oqtx2swsBlttR-3" target="U6ZCY74oqtx2swsBlttR-7">
          <mxGeometry width="100" height="100" relative="1" as="geometry">
            <mxPoint x="241.5" y="890" as="sourcePoint" />
            <mxPoint x="638.5" y="890" as="targetPoint" />
          </mxGeometry>
        </mxCell>
        <mxCell id="U6ZCY74oqtx2swsBlttR-28" value="과목명" style="ellipse;whiteSpace=wrap;html=1;align=center;fontSize=16;" vertex="1" parent="1">
          <mxGeometry x="110" y="460" width="100" height="40" as="geometry" />
        </mxCell>
        <mxCell id="U6ZCY74oqtx2swsBlttR-29" value="이름" style="ellipse;whiteSpace=wrap;html=1;align=center;fontSize=16;" vertex="1" parent="1">
          <mxGeometry x="650" y="390" width="100" height="40" as="geometry" />
        </mxCell>
        <mxCell id="B673iIggOpEyxqQlAIWu-1" value="&lt;font style=&quot;font-size: 16px;&quot;&gt;Logical Data Modeling(RM)논리적 모델링&lt;/font&gt;" style="whiteSpace=wrap;html=1;align=center;fontStyle=4" vertex="1" parent="1">
          <mxGeometry x="250" y="890" width="390" height="40" as="geometry" />
        </mxCell>
        <mxCell id="QSTd9HGgGCunq5OF9k2H-1" value="&lt;font style=&quot;font-size: 16px;&quot;&gt;Conceputal Data Modeling(ERD)개념적 모델링&lt;/font&gt;" style="whiteSpace=wrap;html=1;align=center;fontStyle=4" vertex="1" parent="1">
          <mxGeometry x="230" y="10" width="390" height="40" as="geometry" />
        </mxCell>
        <mxCell id="-iZsRLHqQfqY73U1T4Wb-1" value="1에서 n으로 줘야해서 학생에 학과코드(FK)가 있음" style="text;html=1;align=center;verticalAlign=middle;resizable=0;points=[];autosize=1;strokeColor=none;fillColor=none;fontSize=16;" vertex="1" parent="1">
          <mxGeometry x="560" y="250" width="380" height="30" as="geometry" />
        </mxCell>
      </root>
    </mxGraphModel>
  </diagram>
</mxfile>
